<?xml version="1.0" standalone="no"?>
<!DOCTYPE svg PUBLIC "-//W3C//DTD SVG 20010904//EN"
 "http://www.w3.org/TR/2001/REC-SVG-20010904/DTD/svg10.dtd">
<svg version="1.0" xmlns="http://www.w3.org/2000/svg"
 width="2000.000000pt" height="2000.000000pt" viewBox="0 0 2000.000000 2000.000000"
 preserveAspectRatio="xMidYMid meet">

<!-- Cyan : gouttes + Prime -->
<g transform="translate(0.000000,2000.000000) scale(0.100000,-0.100000)"
fill="#00C8F0" stroke="none">
<!-- Goutte haut-droite -->
<path d="M6290 12194 c-90 -25 -155 -79 -203 -168 -22 -40 -22 -48 -25 -521
l-3 -480 255 254 c176 176 265 273 290 315 54 90 78 175 79 281 1 108 -18 159
-88 234 -78 84 -194 116 -305 85z"/>
<!-- Goutte haut-gauche -->
<path d="M4920 11633 c-65 -23 -160 -122 -184 -191 -26 -76 -19 -181 18 -248
18 -34 130 -153 347 -370 l320 -319 -3 390 c-3 375 -4 392 -25 449 -46 121
-135 231 -225 277 -57 30 -183 36 -248 12z"/>
<!-- Goutte gauche (pill) -->
<path d="M4373 10292 c-75 -27 -136 -81 -172 -154 -26 -51 -31 -73 -31 -133 0
-39 7 -92 16 -118 22 -64 91 -139 159 -171 l56 -26 387 0 c455 0 453 0 543 89
65 66 89 124 89 217 0 124 -66 231 -175 284 l-50 25 -385 2 c-350 3 -390 1
-437 -15z"/>
<!-- Goutte bas-gauche -->
<path d="M5094 9168 c-356 -359 -366 -371 -372 -493 -7 -130 55 -237 170 -294
52 -26 72 -31 137 -31 63 0 87 5 136 28 109 52 215 199 245 342 7 37 10 170 8
413 l-3 358 -321 -323z"/>
<!-- Goutte bas-droite -->
<path d="M6060 8505 l0 -470 29 -60 c121 -253 464 -242 577 20 23 52 23 180 0
260 -41 142 -71 181 -348 460 l-258 260 0 -470z"/>
<!-- "Prime" text paths -->
<path d="M8950 8951 l0 -831 100 0 100 0 0 339 0 339 268 5 c293 6 338 13 446
70 151 80 236 231 236 417 -1 244 -118 399 -355 466 -50 14 -121 18 -427 21
l-368 5 0 -831z m776 619 c116 -59 159 -145 152 -305 -3 -76 -8 -98 -33 -143
-16 -30 -46 -67 -66 -83 -72 -57 -101 -62 -376 -67 l-253 -4 0 322 0 322 254
-3 253 -4 69 -35z"/>
<path d="M12121 9419 c-29 -5 -74 -20 -100 -32 -38 -19 -53 -36 -88 -98 l-43
-74 0 88 0 87 -105 0 -105 0 0 -635 0 -635 105 0 105 0 0 395 c0 323 3 410 16
473 28 135 86 226 164 260 58 25 167 19 227 -12 56 -28 84 -61 110 -128 15
-38 18 -102 21 -515 l3 -473 99 0 98 0 5 403 c4 318 8 416 20 470 32 134 89
222 167 255 19 8 65 15 103 15 96 0 168 -38 209 -109 41 -75 48 -157 48 -626
l0 -408 100 0 100 0 0 473 c0 502 -5 558 -50 646 -75 147 -268 220 -468 177
-99 -21 -131 -43 -198 -139 -50 -71 -59 -79 -68 -63 -50 83 -71 110 -113 140
-26 19 -70 42 -98 51 -61 20 -191 27 -264 14z"/>
<path d="M14104 9415 c-225 -49 -388 -210 -451 -445 -25 -92 -25 -347 1 -445
71 -276 275 -435 556 -435 149 0 312 63 405 155 57 57 118 167 134 243 l9 42
-107 0 -106 0 -18 -62 c-24 -82 -115 -175 -196 -201 -106 -34 -238 -16 -318
42 -81 59 -142 186 -159 329 l-7 62 463 0 463 0 -5 138 c-6 160 -33 260 -96
358 -119 183 -340 269 -568 219z m278 -182 c30 -17 69 -51 91 -79 39 -51 79
-161 90 -246 l7 -48 -360 0 c-281 0 -360 3 -360 13 0 6 7 39 14 72 53 221 183
330 383 321 68 -3 91 -9 135 -33z"/>
<path d="M10700 9397 c-50 -20 -61 -30 -115 -111 l-60 -88 -3 96 -3 96 -99 0
-100 0 0 -635 0 -635 100 0 100 0 0 383 c0 211 5 410 10 445 30 183 154 302
315 302 l55 0 0 79 c0 63 -3 80 -16 85 -35 13 -131 5 -184 -17z"/>
<path d="M11110 8755 l0 -635 105 0 105 0 0 635 0 635 -105 0 -105 0 0 -635z"/>
<path d="M11139 9787 c-122 -82 -26 -274 115 -227 53 17 86 62 86 116 0 25 -7
58 -15 74 -31 60 -124 79 -186 37z"/>
</g>

<!-- Bleu foncé : flèche K + "Nex" -->
<g transform="translate(0.000000,2000.000000) scale(0.100000,-0.100000)"
fill="#1B3FAF" stroke="none">
<!-- Flèche K -->
<path d="M7605 11633 c-61 -21 -111 -68 -907 -863 -652 -653 -632 -629 -633
-770 0 -148 -38 -103 762 -901 679 -678 710 -707 768 -729 120 -44 268 -12
346 77 60 69 74 109 74 213 0 80 -4 102 -24 140 -15 30 -165 187 -439 462
l-416 417 595 3 c676 4 646 1 743 89 73 66 101 130 100 229 0 124 -61 220
-176 282 l-43 23 -607 3 c-335 1 -608 6 -608 10 0 4 185 192 411 417 353 352
415 418 440 470 73 152 7 341 -145 415 -64 31 -171 37 -241 13z"/>
<!-- "Nex" text paths -->
<path d="M8930 11035 l0 -825 166 0 167 0 -5 627 c-5 604 -4 625 13 592 9 -19
161 -299 337 -624 l321 -590 225 -3 226 -2 0 825 0 825 -165 0 -165 0 1 -452
c1 -249 4 -535 8 -635 3 -100 3 -179 -1 -175 -4 4 -161 289 -347 632 l-340
625 -221 3 -220 2 0 -825z"/>
<path d="M11105 11505 c-228 -49 -387 -195 -462 -420 -25 -73 -27 -94 -27
-240 -1 -179 11 -241 66 -355 42 -87 150 -195 239 -238 102 -49 178 -65 309
-64 267 1 454 105 549 305 21 45 42 94 45 110 l6 27 -162 0 -163 0 -19 -52
c-34 -96 -137 -168 -241 -168 -51 0 -147 29 -182 56 -58 44 -107 146 -119 249
l-7 55 451 0 452 0 6 26 c10 38 -3 197 -21 274 -41 171 -156 321 -299 389
-124 59 -282 77 -421 46z m228 -231 c83 -28 151 -128 172 -251 l7 -43 -281 0
c-321 0 -296 -9 -263 97 31 99 91 169 169 198 51 19 139 18 196 -1z"/>
<path d="M11947 11477 c4 -8 102 -149 216 -315 129 -187 205 -307 201 -314 -4
-7 -103 -151 -221 -320 -117 -169 -213 -309 -213 -312 0 -4 83 -6 184 -6 l184
0 133 219 c73 121 136 218 140 216 4 -3 64 -102 134 -220 l127 -215 190 0 190
0 -18 28 c-10 15 -109 159 -221 320 -112 161 -203 295 -203 297 0 2 95 139
211 305 115 166 213 308 216 316 4 12 -23 14 -179 14 l-185 0 -128 -215 -128
-216 -129 216 -129 215 -190 0 c-155 0 -189 -2 -182 -13z"/>
</g>
</svg>